<?xml version="1.0" encoding="UTF-8"?>
<!DOCTYPE svg PUBLIC "-//W3C//DTD SVG 1.1//EN" "http://www.w3.org/Graphics/SVG/1.1/DTD/svg11.dtd">
<svg xmlns="http://www.w3.org/2000/svg" version="1.1" width="current" height="current" viewBox="0 0 292 292" style="shape-rendering:geometricPrecision; text-rendering:geometricPrecision; image-rendering:optimizeQuality; fill-rule:evenodd; clip-rule:evenodd" xmlns:xlink="http://www.w3.org/1999/xlink">
<g><path style="opacity:0.958" fill="current" d="M 176.5,49.5 C 181.751,56.0915 187.418,62.4248 193.5,68.5C 195.713,72.67 196.046,77.0033 194.5,81.5C 200.793,80.8372 206.46,82.3372 211.5,86C 219.694,94.1937 227.86,102.36 236,110.5C 237.881,113.887 239.381,117.387 240.5,121C 240.561,122.711 239.894,124.044 238.5,125C 245.197,124.631 250.864,126.797 255.5,131.5C 257.57,138.293 255.904,143.96 250.5,148.5C 233.194,160.37 216.027,172.37 199,184.5C 198.333,185.167 198.333,185.833 199,186.5C 202.167,189.667 205.333,192.833 208.5,196C 209.672,196.353 210.838,196.187 212,195.5C 230.995,183.586 250.495,172.586 270.5,162.5C 275.167,161.167 279.833,161.167 284.5,162.5C 292.432,169.131 292.432,175.798 284.5,182.5C 246.079,204.249 207.412,225.582 168.5,246.5C 163.167,247.833 157.833,247.833 152.5,246.5C 148.878,242.917 147.712,238.584 149,233.5C 160.507,225.439 172.341,217.939 184.5,211C 181.317,207.985 178.317,204.818 175.5,201.5C 164.092,209.271 152.759,217.105 141.5,225C 131.849,226.845 126.182,223.011 124.5,213.5C 120.34,213.836 117.007,212.336 114.5,209C 108.652,203.319 102.985,197.485 97.5,191.5C 96.5344,189.604 96.2011,187.604 96.5,185.5C 92.3404,185.836 89.0071,184.336 86.5,181C 83.3333,177.833 80.1667,174.667 77,171.5C 75.331,169.831 74.4977,167.831 74.5,165.5C 67.4393,163.492 64.2726,158.826 65,151.5C 72.6187,139.004 80.7854,126.838 89.5,115C 86.6667,112.167 83.8333,109.333 81,106.5C 74.6266,118.081 68.1266,129.581 61.5,141C 46.6839,144.843 40.5172,139.343 43,124.5C 64.9646,83.9102 86.9646,43.2435 109,2.5C 109.75,1.87424 110.584,1.37424 111.5,1C 116.5,0.333333 121.5,0.333333 126.5,1C 128.333,1.5 129.5,2.66667 130,4.5C 131.098,11.3846 130.431,18.0513 128,24.5C 117.466,43.0615 106.966,61.7281 96.5,80.5C 99.1059,84.6092 102.273,88.2759 106,91.5C 118.434,73.598 130.934,55.7647 143.5,38C 146.787,35.9075 150.287,34.4075 154,33.5C 156.761,34.4176 159.594,35.0843 162.5,35.5C 164.013,39.318 164.68,43.318 164.5,47.5C 168.747,47.1941 172.747,47.8608 176.5,49.5 Z M 148.5,77.5 C 148.73,75.0172 149.397,74.5172 150.5,76C 150.164,77.0299 149.497,77.5299 148.5,77.5 Z M 148.5,77.5 C 147.663,81.0932 145.663,83.7599 142.5,85.5C 143.551,82.0393 145.551,79.3727 148.5,77.5 Z M 142.5,85.5 C 141.864,87.7946 140.531,89.4613 138.5,90.5C 139.136,88.2054 140.469,86.5387 142.5,85.5 Z M 138.5,90.5 C 138.715,92.1788 138.048,93.1788 136.5,93.5C 136.427,91.9731 137.094,90.9731 138.5,90.5 Z M 136.5,93.5 C 136.5,94.8333 135.833,95.5 134.5,95.5C 134.5,94.1667 135.167,93.5 136.5,93.5 Z M 166.5,99.5 C 167.373,97.1137 168.873,95.1137 171,93.5C 170.902,96.4456 169.402,98.4456 166.5,99.5 Z M 134.5,95.5 C 134.573,97.0269 133.906,98.0269 132.5,98.5C 132.427,96.9731 133.094,95.9731 134.5,95.5 Z M 166.5,99.5 C 166.5,100.833 165.833,101.5 164.5,101.5C 164.5,100.167 165.167,99.5 166.5,99.5 Z M 164.5,101.5 C 163.92,103.749 162.587,105.415 160.5,106.5C 161.136,104.205 162.469,102.539 164.5,101.5 Z M 160.5,106.5 C 159.243,109.427 157.243,111.761 154.5,113.5C 155.81,110.527 157.81,108.193 160.5,106.5 Z M 154.5,113.5 C 154.5,114.833 153.833,115.5 152.5,115.5C 152.5,114.167 153.167,113.5 154.5,113.5 Z M 152.5,115.5 C 152.5,116.833 151.833,117.5 150.5,117.5C 150.5,116.167 151.167,115.5 152.5,115.5 Z M 188.5,115.5 C 193.908,119.4 198.908,123.9 203.5,129C 196.281,134.771 189.281,140.771 182.5,147C 179.069,153.562 180.402,158.896 186.5,163C 183.679,164.822 181.179,166.989 179,169.5C 174.392,158.211 166.226,151.378 154.5,149C 166.339,138.328 177.672,127.161 188.5,115.5 Z M 150.5,117.5 C 150.5,118.833 149.833,119.5 148.5,119.5C 148.5,118.167 149.167,117.5 150.5,117.5 Z M 148.5,119.5 C 148.573,121.027 147.906,122.027 146.5,122.5C 146.427,120.973 147.094,119.973 148.5,119.5 Z M 146.5,122.5 C 146.167,123.5 145.5,124.167 144.5,124.5C 144.5,123.167 145.167,122.5 146.5,122.5 Z M 144.5,171.5 C 146.017,171.511 147.184,172.177 148,173.5C 148.528,174.816 148.028,175.483 146.5,175.5C 141.156,181.036 135.49,186.369 129.5,191.5C 126.65,188.818 123.984,185.984 121.5,183C 129.035,176.465 135.869,169.299 142,161.5C 142.447,164.975 143.28,168.309 144.5,171.5 Z"/></g>
<g><path style="opacity:0.004" fill="current" d="M 176.5,48.5 C 177.833,49.1667 177.833,49.1667 176.5,48.5 Z"/></g>
<g><path style="opacity:0.004" fill="current" d="M 178.5,50.5 C 179.833,51.1667 179.833,51.1667 178.5,50.5 Z"/></g>
<g><path style="opacity:0.004" fill="current" d="M 180.5,52.5 C 181.833,53.1667 181.833,53.1667 180.5,52.5 Z"/></g>
<g><path style="opacity:0.004" fill="current" d="M 182.5,54.5 C 183.833,55.1667 183.833,55.1667 182.5,54.5 Z"/></g>
<g><path style="opacity:0.004" fill="current" d="M 184.5,56.5 C 185.833,57.1667 185.833,57.1667 184.5,56.5 Z"/></g>
<g><path style="opacity:0.004" fill="current" d="M 186.5,58.5 C 187.833,59.1667 187.833,59.1667 186.5,58.5 Z"/></g>
<g><path style="opacity:0.004" fill="current" d="M 188.5,60.5 C 189.833,61.1667 189.833,61.1667 188.5,60.5 Z"/></g>
<g><path style="opacity:0.004" fill="current" d="M 190.5,62.5 C 191.833,63.1667 191.833,63.1667 190.5,62.5 Z"/></g>
<g><path style="opacity:0.004" fill="current" d="M 192.5,64.5 C 193.833,65.1667 193.833,65.1667 192.5,64.5 Z"/></g>
<g><path style="opacity:0.004" fill="current" d="M 83.5,111.5 C 84.8333,112.167 84.8333,112.167 83.5,111.5 Z"/></g>
<g><path style="opacity:0.004" fill="current" d="M 85.5,113.5 C 86.8333,114.167 86.8333,114.167 85.5,113.5 Z"/></g>
<g><path style="opacity:0.95" fill="current" d="M 34.5,145.5 C 42.1105,143.696 47.9439,146.029 52,152.5C 52.8325,156.753 52.1659,160.753 50,164.5C 39.0654,177.408 30.732,191.741 25,207.5C 22.7681,217.053 22.1014,226.719 23,236.5C 23.3333,232.5 23.6667,228.5 24,224.5C 24.3742,223.584 24.8742,222.75 25.5,222C 34.6305,219.672 41.9638,222.172 47.5,229.5C 50.8768,227.675 54.5435,227.008 58.5,227.5C 58.3204,223.318 58.987,219.318 60.5,215.5C 63.7345,214.424 67.0678,213.757 70.5,213.5C 70.1866,210.753 70.52,208.086 71.5,205.5C 73.1789,203.896 75.1789,203.229 77.5,203.5C 77.8333,201.5 78.1667,199.5 78.5,197.5C 80.8967,196.632 83.3967,195.965 86,195.5C 91.501,197.187 96.6676,199.52 101.5,202.5C 102.661,206.795 102.828,211.129 102,215.5C 100.509,217.004 98.676,217.837 96.5,218C 97,218.5 97.5,219 98,219.5C 98.4988,223.486 98.6655,227.486 98.5,231.5C 94.2936,230.949 91.9603,232.783 91.5,237C 89.8659,237.494 88.1992,237.66 86.5,237.5C 86.468,242.946 83.8013,245.612 78.5,245.5C 77.5,252.5 73.5,256.5 66.5,257.5C 65.8333,260.167 65.1667,262.833 64.5,265.5C 59.6197,266.826 54.6197,267.66 49.5,268C 54.6838,270.316 60.1838,271.483 66,271.5C 73.5738,270.841 81.0738,269.341 88.5,267C 102.911,260.626 116.244,252.459 128.5,242.5C 137.836,239.334 143.836,242.501 146.5,252C 145.429,254.424 144.429,256.924 143.5,259.5C 126.932,273.952 108.099,283.952 87,289.5C 49.5118,297.084 22.1784,284.084 5,250.5C -0.948182,232.186 -0.948182,213.853 5,195.5C 11.0305,176.416 20.8638,159.75 34.5,145.5 Z M 26.5,244.5 C 27.2674,245.172 27.9341,246.005 28.5,247C 26.9387,247.188 26.272,246.355 26.5,244.5 Z M 33.5,255.5 C 31.5541,254.746 30.7207,253.412 31,251.5C 32.4813,252.471 33.3146,253.804 33.5,255.5 Z M 45.5,266.5 C 46.4971,265.287 47.4971,265.454 48.5,267C 47.4232,267.47 46.4232,267.303 45.5,266.5 Z"/></g>
<g><path style="opacity:0.004" fill="current" d="M 121.5,244.5 C 122.833,245.167 122.833,245.167 121.5,244.5 Z"/></g>
</svg>
